<mxfile host="app.diagrams.net" modified="2024-05-14T11:19:10.295Z" agent="Mozilla/5.0 (Macintosh; Intel Mac OS X 10_15_7) AppleWebKit/537.36 (KHTML, like Gecko) Chrome/123.0.0.0 Safari/537.36" etag="jxLz3fjqe3elSDNqeiDa" version="24.4.0" type="device">
  <diagram name="Seite-1" id="jyw6iPB7rLS2E3Dj1UKD">
    <mxGraphModel dx="1523" dy="1406" grid="1" gridSize="10" guides="1" tooltips="1" connect="1" arrows="1" fold="1" page="1" pageScale="1" pageWidth="827" pageHeight="1169" math="0" shadow="0">
      <root>
        <mxCell id="0" />
        <mxCell id="1" parent="0" />
        <mxCell id="Kq0Dt2APN0UdBmoPHADJ-1" value="" style="shape=cube;whiteSpace=wrap;html=1;boundedLbl=1;backgroundOutline=1;darkOpacity=0.05;darkOpacity2=0.1;" vertex="1" parent="1">
          <mxGeometry x="120" y="800" width="700" height="460" as="geometry" />
        </mxCell>
        <mxCell id="Kq0Dt2APN0UdBmoPHADJ-2" value="" style="shape=cube;whiteSpace=wrap;html=1;boundedLbl=1;backgroundOutline=1;darkOpacity=0.05;darkOpacity2=0.1;" vertex="1" parent="1">
          <mxGeometry x="160" y="780" width="700" height="460" as="geometry" />
        </mxCell>
        <mxCell id="Kq0Dt2APN0UdBmoPHADJ-3" value="&lt;b&gt;API Gateway&lt;/b&gt;" style="shape=cube;whiteSpace=wrap;html=1;boundedLbl=1;backgroundOutline=1;darkOpacity=0.05;darkOpacity2=0.1;" vertex="1" parent="1">
          <mxGeometry x="120" y="260" width="1380" height="80" as="geometry" />
        </mxCell>
        <mxCell id="Kq0Dt2APN0UdBmoPHADJ-4" value="&lt;b&gt;Service Registry&lt;/b&gt;" style="shape=cube;whiteSpace=wrap;html=1;boundedLbl=1;backgroundOutline=1;darkOpacity=0.05;darkOpacity2=0.1;" vertex="1" parent="1">
          <mxGeometry x="1200" y="420" width="160" height="80" as="geometry" />
        </mxCell>
        <mxCell id="Kq0Dt2APN0UdBmoPHADJ-5" value="&lt;b&gt;Package Service&lt;/b&gt;" style="shape=cube;whiteSpace=wrap;html=1;boundedLbl=1;backgroundOutline=1;darkOpacity=0.05;darkOpacity2=0.1;" vertex="1" parent="1">
          <mxGeometry x="480" y="420" width="160" height="80" as="geometry" />
        </mxCell>
        <mxCell id="Kq0Dt2APN0UdBmoPHADJ-6" value="&lt;b style=&quot;border-color: var(--border-color);&quot;&gt;Log Service&lt;/b&gt;" style="shape=cube;whiteSpace=wrap;html=1;boundedLbl=1;backgroundOutline=1;darkOpacity=0.05;darkOpacity2=0.1;" vertex="1" parent="1">
          <mxGeometry x="840" y="420" width="160" height="80" as="geometry" />
        </mxCell>
        <mxCell id="Kq0Dt2APN0UdBmoPHADJ-7" value="" style="shape=cube;whiteSpace=wrap;html=1;boundedLbl=1;backgroundOutline=1;darkOpacity=0.05;darkOpacity2=0.1;" vertex="1" parent="1">
          <mxGeometry x="200" y="760" width="700" height="460" as="geometry" />
        </mxCell>
        <mxCell id="Kq0Dt2APN0UdBmoPHADJ-8" value="&lt;b&gt;Fleet Manager&lt;/b&gt;" style="shape=cube;whiteSpace=wrap;html=1;boundedLbl=1;backgroundOutline=1;darkOpacity=0.05;darkOpacity2=0.1;" vertex="1" parent="1">
          <mxGeometry x="460" y="830" width="200" height="80" as="geometry" />
        </mxCell>
        <mxCell id="Kq0Dt2APN0UdBmoPHADJ-9" value="&lt;b&gt;Runner Pool&lt;/b&gt;" style="points=[[0,0],[0.25,0],[0.5,0],[0.75,0],[1,0],[1,0.25],[1,0.5],[1,0.75],[1,1],[0.75,1],[0.5,1],[0.25,1],[0,1],[0,0.75],[0,0.5],[0,0.25]];outlineConnect=0;gradientColor=none;html=1;whiteSpace=wrap;fontSize=12;fontStyle=0;container=1;pointerEvents=0;collapsible=0;recursiveResize=0;shape=mxgraph.aws4.group;grIcon=mxgraph.aws4.group_aws_cloud;strokeColor=#232F3E;fillColor=none;verticalAlign=top;align=left;spacingLeft=30;fontColor=#232F3E;dashed=0;" vertex="1" parent="1">
          <mxGeometry x="240" y="1000" width="640" height="200" as="geometry" />
        </mxCell>
        <mxCell id="Kq0Dt2APN0UdBmoPHADJ-10" value="" style="whiteSpace=wrap;html=1;aspect=fixed;fillColor=#232f3e;strokeColor=none;" vertex="1" parent="Kq0Dt2APN0UdBmoPHADJ-9">
          <mxGeometry x="3" y="2" width="20" height="20" as="geometry" />
        </mxCell>
        <mxCell id="Kq0Dt2APN0UdBmoPHADJ-11" value="&lt;b&gt;Runner&lt;/b&gt;&amp;nbsp;(Type A)" style="shape=cube;whiteSpace=wrap;html=1;boundedLbl=1;backgroundOutline=1;darkOpacity=0.05;darkOpacity2=0.1;" vertex="1" parent="Kq0Dt2APN0UdBmoPHADJ-9">
          <mxGeometry x="30" y="50" width="180" height="50" as="geometry" />
        </mxCell>
        <mxCell id="Kq0Dt2APN0UdBmoPHADJ-12" value="&lt;b&gt;Runner&lt;/b&gt; (Type A)" style="shape=cube;whiteSpace=wrap;html=1;boundedLbl=1;backgroundOutline=1;darkOpacity=0.05;darkOpacity2=0.1;" vertex="1" parent="Kq0Dt2APN0UdBmoPHADJ-9">
          <mxGeometry x="30" y="120" width="180" height="50" as="geometry" />
        </mxCell>
        <mxCell id="Kq0Dt2APN0UdBmoPHADJ-13" value="&lt;b&gt;Runner&lt;/b&gt; (Type A)" style="shape=cube;whiteSpace=wrap;html=1;boundedLbl=1;backgroundOutline=1;darkOpacity=0.05;darkOpacity2=0.1;" vertex="1" parent="Kq0Dt2APN0UdBmoPHADJ-9">
          <mxGeometry x="230" y="50" width="180" height="50" as="geometry" />
        </mxCell>
        <mxCell id="Kq0Dt2APN0UdBmoPHADJ-14" value="&lt;b&gt;Runner&lt;/b&gt; (Type B)" style="shape=cube;whiteSpace=wrap;html=1;boundedLbl=1;backgroundOutline=1;darkOpacity=0.05;darkOpacity2=0.1;" vertex="1" parent="Kq0Dt2APN0UdBmoPHADJ-9">
          <mxGeometry x="230" y="120" width="180" height="50" as="geometry" />
        </mxCell>
        <mxCell id="Kq0Dt2APN0UdBmoPHADJ-15" value="&lt;b&gt;Runner&lt;/b&gt; (Type C)" style="shape=cube;whiteSpace=wrap;html=1;boundedLbl=1;backgroundOutline=1;darkOpacity=0.05;darkOpacity2=0.1;" vertex="1" parent="Kq0Dt2APN0UdBmoPHADJ-9">
          <mxGeometry x="430" y="50" width="180" height="50" as="geometry" />
        </mxCell>
        <mxCell id="Kq0Dt2APN0UdBmoPHADJ-16" value="&lt;b&gt;Runner&lt;/b&gt; (Type D)" style="shape=cube;whiteSpace=wrap;html=1;boundedLbl=1;backgroundOutline=1;darkOpacity=0.05;darkOpacity2=0.1;" vertex="1" parent="Kq0Dt2APN0UdBmoPHADJ-9">
          <mxGeometry x="430" y="120" width="180" height="50" as="geometry" />
        </mxCell>
        <mxCell id="Kq0Dt2APN0UdBmoPHADJ-17" value="" style="endArrow=none;dashed=1;html=1;rounded=0;exitX=0;exitY=0;exitDx=180;exitDy=20;exitPerimeter=0;entryX=0;entryY=0;entryDx=0;entryDy=0;" edge="1" parent="Kq0Dt2APN0UdBmoPHADJ-9" target="Kq0Dt2APN0UdBmoPHADJ-253">
          <mxGeometry width="50" height="50" relative="1" as="geometry">
            <mxPoint x="610" y="70" as="sourcePoint" />
            <mxPoint x="770" y="140" as="targetPoint" />
          </mxGeometry>
        </mxCell>
        <mxCell id="Kq0Dt2APN0UdBmoPHADJ-18" value="" style="endArrow=none;dashed=1;html=1;rounded=0;exitX=1;exitY=1;exitDx=0;exitDy=0;exitPerimeter=0;entryX=0;entryY=1;entryDx=0;entryDy=0;" edge="1" parent="Kq0Dt2APN0UdBmoPHADJ-9" target="Kq0Dt2APN0UdBmoPHADJ-253">
          <mxGeometry width="50" height="50" relative="1" as="geometry">
            <mxPoint x="610" y="100" as="sourcePoint" />
            <mxPoint x="753" y="280" as="targetPoint" />
          </mxGeometry>
        </mxCell>
        <mxCell id="Kq0Dt2APN0UdBmoPHADJ-19" value="&lt;b&gt;CLI&lt;/b&gt;" style="rounded=0;whiteSpace=wrap;html=1;" vertex="1" parent="1">
          <mxGeometry x="580" y="120" width="190" height="60" as="geometry" />
        </mxCell>
        <mxCell id="Kq0Dt2APN0UdBmoPHADJ-20" value="&lt;b&gt;HTTP Trigger&lt;/b&gt;" style="rounded=0;whiteSpace=wrap;html=1;" vertex="1" parent="1">
          <mxGeometry x="810" y="120" width="190" height="60" as="geometry" />
        </mxCell>
        <mxCell id="Kq0Dt2APN0UdBmoPHADJ-21" value="" style="endArrow=classic;html=1;rounded=0;strokeWidth=2;strokeColor=#000000;" edge="1" parent="1">
          <mxGeometry width="50" height="50" relative="1" as="geometry">
            <mxPoint x="674.5" y="180" as="sourcePoint" />
            <mxPoint x="674.5" y="260" as="targetPoint" />
          </mxGeometry>
        </mxCell>
        <mxCell id="Kq0Dt2APN0UdBmoPHADJ-22" value="HTTP" style="edgeLabel;html=1;align=center;verticalAlign=middle;resizable=0;points=[];fontColor=#000000;" vertex="1" connectable="0" parent="Kq0Dt2APN0UdBmoPHADJ-21">
          <mxGeometry x="-0.1042" y="-1" relative="1" as="geometry">
            <mxPoint x="2" as="offset" />
          </mxGeometry>
        </mxCell>
        <mxCell id="Kq0Dt2APN0UdBmoPHADJ-23" value="" style="endArrow=classic;html=1;rounded=0;strokeWidth=2;strokeColor=#000000;" edge="1" parent="1">
          <mxGeometry width="50" height="50" relative="1" as="geometry">
            <mxPoint x="904.5" y="180" as="sourcePoint" />
            <mxPoint x="904.5" y="260" as="targetPoint" />
          </mxGeometry>
        </mxCell>
        <mxCell id="Kq0Dt2APN0UdBmoPHADJ-24" value="HTTP" style="edgeLabel;html=1;align=center;verticalAlign=middle;resizable=0;points=[];fontColor=#000000;" vertex="1" connectable="0" parent="Kq0Dt2APN0UdBmoPHADJ-23">
          <mxGeometry x="-0.1667" y="1" relative="1" as="geometry">
            <mxPoint as="offset" />
          </mxGeometry>
        </mxCell>
        <mxCell id="Kq0Dt2APN0UdBmoPHADJ-25" value="" style="endArrow=classic;html=1;rounded=0;strokeWidth=2;strokeColor=#000000;" edge="1" parent="1">
          <mxGeometry width="50" height="50" relative="1" as="geometry">
            <mxPoint x="559.9999999999999" y="340" as="sourcePoint" />
            <mxPoint x="559.9999999999999" y="420" as="targetPoint" />
          </mxGeometry>
        </mxCell>
        <mxCell id="Kq0Dt2APN0UdBmoPHADJ-26" value="gRPC" style="edgeLabel;html=1;align=center;verticalAlign=middle;resizable=0;points=[];fontColor=#000000;" vertex="1" connectable="0" parent="Kq0Dt2APN0UdBmoPHADJ-25">
          <mxGeometry x="-0.1042" y="-1" relative="1" as="geometry">
            <mxPoint as="offset" />
          </mxGeometry>
        </mxCell>
        <mxCell id="Kq0Dt2APN0UdBmoPHADJ-27" value="" style="endArrow=classic;html=1;rounded=0;strokeWidth=2;strokeColor=#000000;" edge="1" parent="1">
          <mxGeometry width="50" height="50" relative="1" as="geometry">
            <mxPoint x="919.5699999999999" y="340" as="sourcePoint" />
            <mxPoint x="919.5699999999999" y="420" as="targetPoint" />
          </mxGeometry>
        </mxCell>
        <mxCell id="Kq0Dt2APN0UdBmoPHADJ-28" value="gRPC" style="edgeLabel;html=1;align=center;verticalAlign=middle;resizable=0;points=[];fontColor=#000000;" vertex="1" connectable="0" parent="Kq0Dt2APN0UdBmoPHADJ-27">
          <mxGeometry x="-0.1042" y="-2" relative="1" as="geometry">
            <mxPoint as="offset" />
          </mxGeometry>
        </mxCell>
        <mxCell id="Kq0Dt2APN0UdBmoPHADJ-29" value="" style="endArrow=classic;html=1;rounded=0;strokeWidth=2;strokeColor=#000000;" edge="1" parent="1">
          <mxGeometry width="50" height="50" relative="1" as="geometry">
            <mxPoint x="1279.44" y="340" as="sourcePoint" />
            <mxPoint x="1279.44" y="420" as="targetPoint" />
          </mxGeometry>
        </mxCell>
        <mxCell id="Kq0Dt2APN0UdBmoPHADJ-30" value="gRPC" style="edgeLabel;html=1;align=center;verticalAlign=middle;resizable=0;points=[];fontColor=#000000;" vertex="1" connectable="0" parent="Kq0Dt2APN0UdBmoPHADJ-29">
          <mxGeometry x="-0.1667" y="-1" relative="1" as="geometry">
            <mxPoint as="offset" />
          </mxGeometry>
        </mxCell>
        <mxCell id="Kq0Dt2APN0UdBmoPHADJ-31" value="&lt;b&gt;Worker Node&lt;/b&gt;" style="text;html=1;strokeColor=none;fillColor=none;align=center;verticalAlign=middle;whiteSpace=wrap;rounded=0;" vertex="1" parent="1">
          <mxGeometry x="220" y="780" width="120" height="30" as="geometry" />
        </mxCell>
        <mxCell id="Kq0Dt2APN0UdBmoPHADJ-32" value="" style="endArrow=classic;html=1;rounded=0;strokeWidth=2;strokeColor=#000000;" edge="1" parent="1">
          <mxGeometry width="50" height="50" relative="1" as="geometry">
            <mxPoint x="200" y="340" as="sourcePoint" />
            <mxPoint x="200" y="420" as="targetPoint" />
          </mxGeometry>
        </mxCell>
        <mxCell id="Kq0Dt2APN0UdBmoPHADJ-33" value="gRPC" style="edgeLabel;html=1;align=center;verticalAlign=middle;resizable=0;points=[];fontColor=#000000;" vertex="1" connectable="0" parent="Kq0Dt2APN0UdBmoPHADJ-32">
          <mxGeometry x="-0.1042" y="-1" relative="1" as="geometry">
            <mxPoint as="offset" />
          </mxGeometry>
        </mxCell>
        <mxCell id="Kq0Dt2APN0UdBmoPHADJ-34" value="&lt;b&gt;Frontend&lt;/b&gt;" style="shape=cube;whiteSpace=wrap;html=1;boundedLbl=1;backgroundOutline=1;darkOpacity=0.05;darkOpacity2=0.1;" vertex="1" parent="1">
          <mxGeometry x="120" y="420" width="160" height="80" as="geometry" />
        </mxCell>
        <mxCell id="Kq0Dt2APN0UdBmoPHADJ-35" value="&lt;b style=&quot;border-color: var(--border-color);&quot;&gt;Invocation&lt;/b&gt;&lt;div style=&quot;border-color: var(--border-color);&quot;&gt;&lt;b style=&quot;border-color: var(--border-color);&quot;&gt;Logs&lt;/b&gt;&lt;/div&gt;" style="shape=cylinder3;whiteSpace=wrap;html=1;boundedLbl=1;backgroundOutline=1;size=15;" vertex="1" parent="1">
          <mxGeometry x="1040" y="410" width="100" height="100" as="geometry" />
        </mxCell>
        <mxCell id="Kq0Dt2APN0UdBmoPHADJ-36" style="edgeStyle=orthogonalEdgeStyle;rounded=0;orthogonalLoop=1;jettySize=auto;html=1;entryX=0;entryY=0.5;entryDx=0;entryDy=0;entryPerimeter=0;" edge="1" parent="1" source="Kq0Dt2APN0UdBmoPHADJ-6" target="Kq0Dt2APN0UdBmoPHADJ-35">
          <mxGeometry relative="1" as="geometry" />
        </mxCell>
        <mxCell id="Kq0Dt2APN0UdBmoPHADJ-37" value="&lt;b&gt;Worker Manager&lt;/b&gt;" style="shape=cube;whiteSpace=wrap;html=1;boundedLbl=1;backgroundOutline=1;darkOpacity=0.05;darkOpacity2=0.1;" vertex="1" parent="1">
          <mxGeometry x="640" y="590" width="200" height="80" as="geometry" />
        </mxCell>
        <mxCell id="Kq0Dt2APN0UdBmoPHADJ-196" value="" style="endArrow=none;html=1;rounded=0;exitX=0;exitY=0;exitDx=0;exitDy=0;" edge="1" parent="1" source="Kq0Dt2APN0UdBmoPHADJ-9">
          <mxGeometry width="50" height="50" relative="1" as="geometry">
            <mxPoint x="430" y="960" as="sourcePoint" />
            <mxPoint x="480" y="910" as="targetPoint" />
          </mxGeometry>
        </mxCell>
        <mxCell id="Kq0Dt2APN0UdBmoPHADJ-197" value="" style="endArrow=none;html=1;rounded=0;exitX=1;exitY=0;exitDx=0;exitDy=0;" edge="1" parent="1" source="Kq0Dt2APN0UdBmoPHADJ-9">
          <mxGeometry width="50" height="50" relative="1" as="geometry">
            <mxPoint x="420" y="1000" as="sourcePoint" />
            <mxPoint x="660" y="910" as="targetPoint" />
          </mxGeometry>
        </mxCell>
        <mxCell id="Kq0Dt2APN0UdBmoPHADJ-198" value="&lt;b&gt;Function Packages&lt;/b&gt;" style="shape=cylinder3;whiteSpace=wrap;html=1;boundedLbl=1;backgroundOutline=1;size=15;" vertex="1" parent="1">
          <mxGeometry x="680" y="410" width="100" height="100" as="geometry" />
        </mxCell>
        <mxCell id="Kq0Dt2APN0UdBmoPHADJ-199" style="edgeStyle=orthogonalEdgeStyle;rounded=0;orthogonalLoop=1;jettySize=auto;html=1;entryX=0;entryY=0.5;entryDx=0;entryDy=0;entryPerimeter=0;" edge="1" parent="1" source="Kq0Dt2APN0UdBmoPHADJ-5" target="Kq0Dt2APN0UdBmoPHADJ-198">
          <mxGeometry relative="1" as="geometry" />
        </mxCell>
        <mxCell id="Kq0Dt2APN0UdBmoPHADJ-200" value="&lt;b&gt;Instance Registrations&lt;/b&gt;" style="shape=cylinder3;whiteSpace=wrap;html=1;boundedLbl=1;backgroundOutline=1;size=15;" vertex="1" parent="1">
          <mxGeometry x="1400" y="410" width="100" height="100" as="geometry" />
        </mxCell>
        <mxCell id="Kq0Dt2APN0UdBmoPHADJ-201" style="edgeStyle=orthogonalEdgeStyle;rounded=0;orthogonalLoop=1;jettySize=auto;html=1;entryX=0;entryY=0.5;entryDx=0;entryDy=0;entryPerimeter=0;" edge="1" parent="1" source="Kq0Dt2APN0UdBmoPHADJ-4" target="Kq0Dt2APN0UdBmoPHADJ-200">
          <mxGeometry relative="1" as="geometry" />
        </mxCell>
        <mxCell id="Kq0Dt2APN0UdBmoPHADJ-202" value="&lt;b&gt;Function Metadata&lt;/b&gt;" style="shape=cylinder3;whiteSpace=wrap;html=1;boundedLbl=1;backgroundOutline=1;size=15;" vertex="1" parent="1">
          <mxGeometry x="320" y="410" width="100" height="100" as="geometry" />
        </mxCell>
        <mxCell id="Kq0Dt2APN0UdBmoPHADJ-203" style="edgeStyle=orthogonalEdgeStyle;rounded=0;orthogonalLoop=1;jettySize=auto;html=1;entryX=0;entryY=0.5;entryDx=0;entryDy=0;entryPerimeter=0;" edge="1" parent="1" source="Kq0Dt2APN0UdBmoPHADJ-34" target="Kq0Dt2APN0UdBmoPHADJ-202">
          <mxGeometry relative="1" as="geometry" />
        </mxCell>
        <mxCell id="Kq0Dt2APN0UdBmoPHADJ-210" value="" style="endArrow=classic;html=1;rounded=0;strokeWidth=2;" edge="1" parent="1">
          <mxGeometry width="50" height="50" relative="1" as="geometry">
            <mxPoint x="240" y="500" as="sourcePoint" />
            <mxPoint x="740" y="590" as="targetPoint" />
            <Array as="points">
              <mxPoint x="240" y="550" />
              <mxPoint x="740" y="550" />
            </Array>
          </mxGeometry>
        </mxCell>
        <mxCell id="Kq0Dt2APN0UdBmoPHADJ-211" value="gRPC" style="edgeLabel;html=1;align=center;verticalAlign=middle;resizable=0;points=[];" vertex="1" connectable="0" parent="Kq0Dt2APN0UdBmoPHADJ-210">
          <mxGeometry x="-0.0531" y="2" relative="1" as="geometry">
            <mxPoint as="offset" />
          </mxGeometry>
        </mxCell>
        <mxCell id="Kq0Dt2APN0UdBmoPHADJ-212" value="" style="endArrow=classic;html=1;rounded=0;strokeWidth=2;" edge="1" parent="1">
          <mxGeometry width="50" height="50" relative="1" as="geometry">
            <mxPoint x="200" y="500" as="sourcePoint" />
            <mxPoint x="540" y="830" as="targetPoint" />
            <Array as="points">
              <mxPoint x="200" y="580" />
              <mxPoint x="539.6" y="580" />
            </Array>
          </mxGeometry>
        </mxCell>
        <mxCell id="Kq0Dt2APN0UdBmoPHADJ-213" value="gRPC" style="edgeLabel;html=1;align=center;verticalAlign=middle;resizable=0;points=[];" vertex="1" connectable="0" parent="Kq0Dt2APN0UdBmoPHADJ-212">
          <mxGeometry x="-0.1893" y="1" relative="1" as="geometry">
            <mxPoint as="offset" />
          </mxGeometry>
        </mxCell>
        <mxCell id="Kq0Dt2APN0UdBmoPHADJ-214" value="" style="endArrow=classic;html=1;rounded=0;strokeWidth=2;" edge="1" parent="1">
          <mxGeometry width="50" height="50" relative="1" as="geometry">
            <mxPoint x="640" y="630" as="sourcePoint" />
            <mxPoint x="580" y="830" as="targetPoint" />
            <Array as="points">
              <mxPoint x="580" y="630" />
            </Array>
          </mxGeometry>
        </mxCell>
        <mxCell id="Kq0Dt2APN0UdBmoPHADJ-215" value="gRPC" style="edgeLabel;html=1;align=center;verticalAlign=middle;resizable=0;points=[];" vertex="1" connectable="0" parent="Kq0Dt2APN0UdBmoPHADJ-214">
          <mxGeometry x="-0.0348" relative="1" as="geometry">
            <mxPoint as="offset" />
          </mxGeometry>
        </mxCell>
        <mxCell id="Kq0Dt2APN0UdBmoPHADJ-248" style="edgeStyle=orthogonalEdgeStyle;rounded=0;orthogonalLoop=1;jettySize=auto;html=1;entryX=0.5;entryY=1;entryDx=0;entryDy=0;entryPerimeter=0;strokeWidth=1;" edge="1" parent="1" source="Kq0Dt2APN0UdBmoPHADJ-37" target="Kq0Dt2APN0UdBmoPHADJ-200">
          <mxGeometry relative="1" as="geometry" />
        </mxCell>
        <mxCell id="Kq0Dt2APN0UdBmoPHADJ-253" value="&lt;b&gt;&lt;font color=&quot;#ff552a&quot;&gt;Firecracker&lt;/font&gt;&lt;/b&gt;" style="points=[[0,0],[0.25,0],[0.5,0],[0.75,0],[1,0],[1,0.25],[1,0.5],[1,0.75],[1,1],[0.75,1],[0.5,1],[0.25,1],[0,1],[0,0.75],[0,0.5],[0,0.25]];outlineConnect=0;gradientColor=none;html=1;whiteSpace=wrap;fontSize=12;fontStyle=0;container=1;pointerEvents=0;collapsible=0;recursiveResize=0;shape=mxgraph.aws4.group;grIcon=mxgraph.aws4.group_aws_cloud;strokeColor=#ff552a;fillColor=default;verticalAlign=top;align=left;spacingLeft=30;fontColor=#232F3E;dashed=0;" vertex="1" parent="1">
          <mxGeometry x="1000" y="920" width="500" height="300" as="geometry" />
        </mxCell>
        <mxCell id="Kq0Dt2APN0UdBmoPHADJ-254" value="" style="whiteSpace=wrap;html=1;aspect=fixed;fillColor=#ff552a;strokeColor=none;" vertex="1" parent="Kq0Dt2APN0UdBmoPHADJ-253">
          <mxGeometry x="3" y="2" width="20" height="20" as="geometry" />
        </mxCell>
        <mxCell id="Kq0Dt2APN0UdBmoPHADJ-255" value="" style="shape=image;verticalLabelPosition=bottom;labelBackgroundColor=default;verticalAlign=top;aspect=fixed;imageAspect=0;image=data:image/png,iVBORw0KGgoAAAANSUhEUgAAAIUAAAC0CAYAAAC6/O80AAAAIGNIUk0AAHomAACAhAAA+gAAAIDoAAB1MAAA6mAAADqYAAAXcJy6UTwAAAAGYktHRAD/AP8A/6C9p5MAAAAHdElNRQfnChIMEBu+iCT2AAAAAW9yTlQBz6J3mgAAODNJREFUeNrtvXm8JFd5Hvy855xa+m6z3jujQavFCJCMYhDGbDZgLFvGxhiwwQ4Oiw1mSYwjAbYx+AMT20nsfAnfL7GDnfjn+EvyJTHGGAIYI8xEgCQLtIE0Wmc00szozszte+/cvbu2835/nKrq09XV6+3uOxJ+f1NTfauraznnqeddzynC00CYmQD4q6urBxOiA5RgrxB0iJkvIcIcQPuJMAXwXiIxzWCPQBUi8kEAgcBgEkQAkQZjkwQlYFol4nUiscystwBaAXheCPEQM69prVeY+dTExESViGIAvNNtMQyhnb6AQeTRRx/1du/e/RImepEg+SwGXwngGYKwG6AZ13WllAoAg8jcJhGBtQaDYf6ZdQYKey2FBAgQJCClaHsdURTHQtB5Zj4P4JwQ4p4kSR5OkuRvKpXKiZ1up0HlKQeKlZWVH000flvr5EWVSgUAkCQJmBmaGWAGM4MMGppAkX5sAUGndeP3rWtqAxpmXq7Vap9cWFj4F1dccUV9p9usX3lKgWJtbe0XPd//j0IId21tHUmSWJ3fbm1ucxSgaKwb5xNCIAhCRHGMra3NzxDwlrm5uY2dbrt+RGz/EOOR9fX1V3ie/4dguFEYwfc9KGVUxIUk6xsbWF1bw9bWFiYnp16ngd/d6WvqV54SoDjLPAnQv5FS+nFi7Dkigu97cB13py8PRATNjLW1dWxt1fLttVoNjnLePb+w8EM7fY39yFMCFFO12rsmJieuC4Kg5TvXc+H7Xk7j4xYiQhzHWF1dQxCGuRoBAK01pJSuBP7VCT7h71T79SsXPChWVla+hxi/EYZh+Q4MOErB93wIIoxTnRABQRBidW0dsWXf2BIEATzPf/FkdfodO9SEfcsFDQpmJinVx33fn02SpP1+AKSUqFQqkFKO7fpqtTrWNzaMt9NhP2MQ48Pz8/OXja/1BpcLGhQbGxuvVI56U73em1cnBMH3fDgjN0AZm1tb2KrVeto7jmN4vn9QKecjo2+17csFC4p5np8gEr8npVTM5R1cfDoZhtI934PrDt8AJQK0ZmxsbCIIwr5+W6/XIaR865lq9ZVjasKB5YIFxeTa5Ds83/uBMuOyqzDgOg58zyvV84NKHCfY2NxEFMf9XxIzlFIOaf6dEycubKPzggTF0tLSxULID8VR/41vi3IUfN+HEALbVSdhFGFjcxOdbJtuEgQBfN9/ydTU1FtH0W7DkgsSFI7jfqRSqRyMB3gim4QBKQQqvgcp5cCwCMIAW1s1tFNj/UiSJGDQhxcWFg4Ov+WGIxccKNbW1l4ilXxrfRC1kUlBYxDZBmjvwmBs1eqo17dxLQWJ4xi+71+iNX5zmO02TLmgQHH06FFXa/644zg+az3UYxMBnuf2FgElgDWjtlVDFEVDv88gCCCk+KX5avX5Qz/4EOSCAsXFF1/8Js/zXtX9yaQBvwNc14HXwQAlEJI4wVathngb9kMn0VrD87wJyfw7zDy+wEqPcsGAYmVlZQ9I/Bb6jUoO4FwoJeF7Pohabz+KItTqdeghM1VR6vU6HMe9YWF5+adHeqIB5IIBBRG9r1LxD0dhf/7/oCKlQKXiNUVAwzBEPQiGYlD2eM+EhD/26KOPzozlhD3KBQGK1dXVw0TifeGYAJGJMUA9KCURBAHCEdgPnSQMQ/i+970zM7vfNdYTd5ELAhRa46N+xd+bJK2UTWOoA4qiGHE8Gvuh+7kjkKAPXEh5kR0Hxfr6+ssd1/nZem1nqtbCMEStXjeVWTuQf0+SBL7vzwkpLxgXdUdBwcxOnCS/rZR0x6XHrXMjjCIEYQi26jp3oi6jXq9DSvWWxcXFF47/7K2yo6BYWVn7Odf1Xt42vzG0Dmo9UBRFSJIEUSGUXuaRjFqYGa7r+lGiP3bkyJH+ImwjkB0DxfLy8i4QPgIwxkwSiOIYidbQiW7KZWRstRNqJAgCuI5zw9VXP/c1Yz95QXaOKYR4b6VSuWoUEcNOEsVxDoRittMGxbiBwcwQQhBDf+zs2bOTYz15QXYEFOfPn79MkLhxWDGJXrsvTpIcEKwZZQm3HBgYP2OEYYhKpXIthPilsZ64IDsCCmb+jW4ldsOWHBBsOjxO4tIgVb6tMH5kbNcZxxAkPrCTWdSxg6JaXblOOs5bgmB8LmiiGwxBZILoUQ+1GrQDwMiyqMz8/rGdtCBjB4WU/BHXcSZGnVsAABCQ6IYxSSkJxHHSMbcx7AxtvxKGIYRU71xcXHz2Tpx/rKBYWFq6QTnqNUEhCzqq51AXAZGyRNzFuLWVyk6wRZIk8DxvV5zwb43tpJaMDRRHj7KrhPgtKZUcVaCKrLVmbribFiB0opH0wAR22X5xvOg4pF6vQyn5MwsLCy8b20lTGRsoDh1ae5Prui8ZqBC3T9G6GRCZHQEAURz1lAVt3odKPo1WmBmO47ia+aPMPNaA1lhAUa1WpzXr3xhHKJuZG0xgA4KNOukn8ZUNGQAslhgjWwRBAMdxX7WwsPSTYzspxgQKIZx3VSqVq0cdqGIgBQS3AAIAkjgxc1j0KMYYtVhizPZFFtAi4t9i5spYTooxgKJarV5Egn91HIDQSQoIFAFhJjOJ4rhv+jeJslG3UnsJwxCu5z3/zMLiPxnXOUcOCinl+3y/cvF2y/W71VXobOoiGE+jwQfGyoy1HqjEzqg8sozOnfFGJOHXVlZW9ozjfCMFxerq6jMBencYjta41JoBCxB5D6aqwgSrBmOqRoSzsa0IkFFLGtC6Mgzjd4/jfCMFRRzrX/crld1lFVUtMkj7EoE1NzNErjY4P7C2IpqDCKe2BRV91DGKYVp+X7VaPTTqc40MFAsL558npPj59iPG+yjTp7I9WgHRYIjGXgxgu6pLWwDLjzzm2EUcx/ArlYNa48ZRn2tkoBBCf8h13clhh7OzycyYudH3VnDKMITZwDBP+TDqLxtp9caVjBsYJvwtfunJavVZozzPSEAxv3D+h6RSr+11Xon+hBrzYIJBJa4nQCk2GIlOhlKy3wA3NQFjnJKGv/co4KZRnmfooGBmqUh/SDlO+7rLAdsyeyLLGaKxITcvqbdsaB83l176zqmRIAggSPxCdYRDDocOisXF8ze4rnN9OGyWSNs87/C0LqLoeuYqhMyTNUz1pdPjAgU1guK20Uk25JAZHxzVOYYKChOj1x8UQgw16WUmRm22IomMp4FUTRQBAQyZJZDaMfnhy7yR8VSDp7PivH5UUzEOFRTVavX1juv+0DCTXjYgsvm0W4NTaAIEA0iSwYJV3YSZm0CADp9GJVmyjDQ+mE5WP1QZGihOnDjhg8QHaRvKtfhDu4A2dz2RMoRpHRiGoCaGIAaSOB7JmFCd5lZaSYLGGtQKggCu69ywsLBw/bCPPTRQTExMvNFxnBcMZzyoGZgj0jEYeZSgJFrZtAOQD+wZ1TQCQBpBzUFgBeDHGNRK59BSTPShYafWhwKKarU6DSF/Pb3c7V8UiXSeqmbXE6WuZxqXoEZhTJwMxw1tJy3HJtsbGV9uJAgCOMp5ebVa/dFhHndITCHe5HvetlPjpn6BLEDYX7RzPdPvMm8kVR0DX4Pjgl2v41OfsVGTyhhOQ/Z3rWlqXQMfZmZvWMfdNiiq1eq0hr5xGEadIMrni2hyPdsBIjMs2WzJ6il6KbcrvwAJ765bUPnyp0BBDegwhDAv7rWKb3YikxqGITzXe8m5c4uvG9Yxtw2KhPkXfc/fFkswhgCIVIskyWAswa4H/2ufx+6P/zJm/uBXMfnfPwF0mNJZ5+F0S3ZIjQAABG4a1vyc2wLF6urqXgL96nYTTkIQzOudBmcIANCsB8uGCgGxsoTJv/gPgI6BiSlUvvKXUCceBDrMqKc15yPJOnkeo4ZFGIZwHef7K1NTPz2M420LFGEYvs33/Su2AwrzyqUSQKALIKxfZDaHMTD7vwZWLrw7vwp56hjgOIAg0OYqvDtuBsv2oGgaH9Kp3mIMbEHmCXo/D+EVEgODYnV1da9m/pVtAUIIOEpZ7VkSiygJTgEApZ5GBgKtTQ3mQNehY3h33YImdSAl3HtvBdU223Yqw7BT+wjn+NSIsS3cF5w7V3n9do81MCjq9fDtvl+5fCBQsFEZyqLm8roIq47BqqLKXEKbFbQeMFglBGhtBc6x+wHlpCOLASgH6tSjkAtPAqKDbaHZYgk7nT5oy25PiMRNJ5i3xRYDgWJtbW0fAwOzBKWAaGQzCpVTeT7DxA45Y4iUGmyG4PT3g9ZMsJBQ8ycgVqrGsDSvEQRIgLbW4Rw/2lmFZPmQlnT6+L2RtMj3usq5xW2xxUCgCILg7ZWKf9kgoCAiOI5j5TPS7TZDoJUhACsWUdhLD1iUCwCQEurUMaBeUBMEIImhHn8QLV5GQbKhACX5Meu+G/c/aiGBm06dOjXwkIC+QXF6bW2fBv2zXgFhNwERwXVtQHSLVjYOYqKVDdfTTohtq7JKM9TpYw0mshcpoU48AIo7u9ta6wabNd33+AtywjCE67rXuW7lDYMeo29QOLXaL1b8TizRZnpjIriOM1ChTBa+LplNAqx5e9lQnUDOP1YeqJIScuEUaGO1YyALKA4FoAY1SAdwXLDjAY5rglzjMDiIbxyULfpKpJw5c2YWQvyzfgNVOUMIYZXSoUMsghtgKbinTSlz3maegwiitgGxdBaQohXPQkCsLUMunkE0sxcUtwef1tqE54lAWf2oVFCPPwjn4buBMEB82bMRPucFYBIg6JHlZ1K2eH7C+g0A/lu/v+8LFKTUmyt+5dJaj+/OMu1O8CxA5NIxFoGcPcgCUNOPOR03up1sqBAQa+chVpcAUcIEgkC1DcjqPKIrn9vxUMyGsaQQxp0WEv7X/zcmP/ufgc01IIkBrVF/6U9g/edvMkbtiMfWSqKbmPnTRNR7h6EP9XHixIndxHhPP8alYQjXYgirUMaunGoXrUyfOG7CRYMuEr29p41JQKyfh9hcMaAo2hTp+eT88Z58zFyNSQfOyUcw+aX/Zi6+Mgn4E4Drwf/aZ1G57QuAckaqRgxbeM9bWFr6mX5/2zMoJicn3+z7fu+z2aWAEFIUDIgewtfWvmgDCFNdtc2aCSKIxXnzFJcZmmTOpM480dPhmNnkRKSEeux+IAoA1zGsIKUJmSsJ777brEsYrX3BiX4vM/f1lr2eQHH8+PFdDHpfr51ARPA8F1IWGALdS+nMPq2xiOKvtuWG5ncvIKun8wqu0kVIyMV5UFjviy0oSQCpAKFM8Etma2fkaiOTKIrguO6LFpaWfqKvZullp4np6dd7ntcTSxAAz3VNxrPIEANEK0tMCQCDZ0OLVysXngRYt2cKKSGXzoBqG0APbiVrDWiN+NKrANczakmpBlsQEH3PNWMp30vrLcCJ/gDfyU6vv+sKCmaeFMCNvehuAuB5HqSSFs0XopXmoOl3qafRIVqZ8UwDEAxmnQ4q3p5QFJpIZpk9kS1CgNaWIDbXyo3RYnsB0GGA+JnXIrzuFQZwOjHrJET87OtQf/nrQEk8FmCEQQDHcV5UvfT8j/T6m67ex+Li+de4rvfcbrWXRmW0B0TZOM+894uuJ9ozBGAqtbftzhEBYR1y+UzHugkAoCiAWDyD+KLLQT1oUK01pFLYevXbEB+6Es6D3wKiAPHFh1F/8Y+Dp3aB4tjcE9HI1YmUUsRJ8H4+wjfTK6krxXYEBTN75xYWb1To/porz3OhmgCBxoeSkeDN2OhgQ5TEJoYzKSuBgi2IlYUGU5TuRkAUQC7Ndw1gWe0GnSQQUiF44fUIXvDDgNbQyjHR0SRpAkP2MBDRSGIXYRhCSfWKxe9dfCmAW7rt3/Euzy0u/qjjqBd2syV83zcZz0KndhvnWaytbG3dEkB0dUN7pGEhIFcWIeq17j/RMeTifF+Raq3TqRrjyOT1YdRVY+ihnVwd7aiRtPJb6h7HoLYFxZEjRxSYb5JSduwE3/fgOHYKvPF/9/B1E2dk1gNa9EVuU3QIVmUWPpFZd2soabwKBFuAoPY2RWZsnjsJ6iNGozXn+ZAyEJC9xugLcswYVPljvbxTpC0onvOc5/yQkuoHO9kSnufBcVKjlps7tJdRXDlE2hgQ9vE4behSN1RKiPMLmPnj38DuP/hlOMfuBatuxjZBLpwC4hBdn08SkNVTxmDsQ8xkLc1ZstYMeytLjAIXzAzPc71E63/abV/R5gBEUv6K47htx4R6ngfXawDC/lA+zpPQLlpZZIjWv81fpYAgApIY0//lY/D/7n/CveermPnkr0MuL3QsjgFryDPHu7MEAZACYmURtLXRs11h2jGr+G5kTVtRgZKKrdGMSQ2CAETiDUtLS1d32q/0DhcXF6+TUv14u0nVPc+D6zp276GfcZ6t1mj6R/Fv+xhtglWsXHj3fg3ePUeAyhTgT0I+eRyVI/+rI1tQHEPNn0iNTOqyCIitNcjMfe1RsnwIpWAojigrH7k+upEkWmv4vj8ZJUnHtxuW3qFm+qeu43hlLOF5LrwCQ/QzzhM9RCttusiDVW0MTNIx/Fs/a4y57Kl3HPi3fwFidbH8yRYSYnXRqIQ0oNRxEQK0tQaxWgX3AQrA9pSo8b895LCjGhk+MMIwhBDizcvLy5e226flDk+fPn0VEV5fNnLcdR24rtuYQaix6nmcZ0+uZ4F9mNuoDiEhq0/CfeQuU4WdiVSQZ0/Au+8bYNUa9mcpIc+egDh/rrOKyYQA6Bhi8Un0+wSbfIjOwdB0zPRDJ29k2JIkCXzP3xclSdsXzbSAwvG8d/q+P1PshOwd4eZOs5VBRz/jPDsDgvOFLftCt2EJlgrq+LdBa4utUUlo+Ld+DpSErY0sJNwH7wCSqDtLWIs698RAHZYkuswFKTU6x1HXGUURWONtp0+f3lf2fRMoFhYWDhLozcU3+TYBIusQ+0Nb1xN9Ryvzvy2gtE18EcF96JsmhFwUx4Xz8DfhHPt2s21BpkbCvf+23ljCErlwKo859CMZqIs2RZOdMUrXoyBxHKNS8S91HO9ny75vAkXC4i2+719kD9B1nAJDFF3PbmlwzmupWhmhJDhV3K9tuR0RxNY6nCceMJ3b8mSbiOXE3/6Z6cisDND14T7w93Aev98kqnplCiEgl+Yh6v15IHnbpmxBBTCUaaNxsIXWGiC8p6xkL7+7arU6TcRvt4toXMeB75cNZt4OIJoO0fQH5+qjsa3tYGGSEKtVyIWT7XMXjgvvrq9g8m/+FCwV2JuArJ7G1Gf+vRkeKPpobCkhzp812dIB+khrDRbK2D7SbXY/m9ZoNjrzmNZwgRFFERzHudZ1J15d/C4P/UVa/1TF85+dBascx4FnA2KbDFFyoKa/Mw+GLQS1NTCRGovzx00nte1cAgRh6tOfgPvoXUhm9sN96FuQ5x43A3/SXXoTgthagzi/gGTPAVCfakSTgDhxP/yTRxHvvwTRVdcB0gHrxBAGA0yUV6w38iANxWur4O1KllaHiN/NzH9N1Ej1KQC48847HUkin/dZKQXfawaE/aGpim4blVNNgLDvNjMwuUPDk4A6/TAQB4BX6bgfmOHe/Xfm+rIKqH6FCIjqUOdOIHrm9wHovXiZpYI6/QimPnkjxCVXwQUQP3ontl71C0im9qSVX1kbtHZ9DpAhZ1RNoky8YmFh+YUAbs+2CwC4+OKLf1Ap9eIwDOE4CpWK35LqLtZF2F/agDD7tPE02gEC1jmsmXQ7VVZREkM9eay3YBKRKa93vZ7yIm1Fx5BnT/T/OyFR+fqnIZ54CKhtAv4E1BMPYOILfwKxvpyqv9agFjWpkeHbF2ZCNVdB6Pc2XS4AkBDvVkpJpRQ8zxqGWAKIwSqnSmOcsEv9i3YHd8qGEoHCGtT8sUYSbByLkFBPHjcFMr0KCYiNFXhHbzUMde4JA2RvAursY5i8+f812VNqDoGPyxkJggAEeu3CwsLhHBRLZ5auBujVSZLA9/3GRRQAgZQhclYA0HPlVInXYic9ChABwJ1noxESYvks5GqXqqlhL1JCnT0Oqm/13FssJdSZ45CLp42RuXIO2Fo3APEmoE4+iMrtn0vd4zZzc+abhs8Waeh7Wmu8PW/eWOi3T09PT3qeWwKI9GIYLd/lxkO2b2ksopwhULafZbdwlnZu19BCQC7Pg7LS/HGJkBArVcil073HOEhAnXwICLeMfRNHQPW0AYWQgOfD+84ROI99OzV+yxJl1uHy74YHjCiKAIFfmJ+f3w8AwnHVG5SSjZOUPeVtg1N2tLJsnCeK/d1kWOYMUfjc/T1fBHX6IeNWjoslCGZw0NYq5JkT4D4CX+rUgw31IARQPQVEYaOgF8DEbZ8Bba0BJEoSZaMNbsVxDM/1LpGuewMACN/3Ly0WrvTvepa5SiXoKISvi/s0JiDp4u4RGSNzaA5aP8JwHr+vt84hAtW3oOYfbTAakTE2l+YNM0gJOB7E0jz8e77SYnSWzu47gtiFUg5Y6x8ADCgaNRPcTPODBKeaPYvWv9sxRIaIXgAhahtQZx9rE8kc8SIIzuPfSWfP69IpJCA2zkNWT7ZmY88+DkCnFWMCcD149389zdwa47nVG8kPPHRgaJ0AjGcAgMhD2jbHM/qqnOonOFW6j+11dFMdJEDry8Zwk/3lLoYiUkHOH4dYOQdQ5/OzlFDVJyC2VpsBJASwvgSsLhpXWUgzjDDYNGyR32vLzY9sagMiAUixAgAijKLNxnTHFkNkOqGHyimgG0M03NSWkHd+HG6bDW1p6LOPgbZWequaGjpTCIjNZTiP39dxhhvTkBLqiaMmwEaFa2UNnD1hACKlWbs+3Mfuhjp7PI2nZCAoB8Nw2YIBrR8BTJziuJQS/Qzr6xatRNPfTShBE2cQpQZbBpoebAQSUKcfNLWVNEZ3NF8IYA3vvlsA7qzqKA7hHL+7/DqFBJbPpu6pk44zVUASwXvg1hIe6FaxNTgciAj1eh2cJHcYUDDdLZXMAdE2OJU5J31UTtlYyIBliEeAhQStL0OcPwvOmKqXUWhJZNy33J4YccCqZQGgHLgP32EGErXzQoSEWDlnjFJVEmATBER1E8ySjjmOUIDjwznxHYil+dLYRXtvZHBUCCHAzAs1IR4AAKGhv5mPRSCLFdITNRVRlQKi0euFFEkTOHKGEBJU38Dk3/5nzPzpB7DrT/45Krf9FXRPFVACYn0Z6smHd8aeyFtRQpw/A+++I23rQFk5cB+6HWK1QwGxEMDCE0a9SGUMTqVAYQ3uI3dYMZiSghxbjWTrAelCKQUiPHjnLbcsZpf1rSAIYiJrwpD0VHkqmyxAZDed/19wMdu4nszp2eqbmPzrfwfv7/8aYm0RtLmCypH/CnHuia4BIZYKcv4Y5Mq5xswzO7VIico3/gJicxUt9RUkQPVNVG79y1ZbomCfoLYGLD5pDM5sZLrjwn3sXojNVWMAmh5vAciw3jWS9v1db3zjGxMAEGEYHmPmeZGPErddT7TGIjoFp+y/i4BIL37ia/8DzqPfSg0pc2BaPA3nxL09GG4C3sN/3zDcdlKkgjr1ICrf+BTY9Zv8RnZ9VG7/DJzH7mmk6NveE4Azj5kxJSKbx8KB2DwP5/SDYIsR7dhFrkasbYOK1hrEopEl3b179yoz7nKUg15jEa0MAevvNsEpqSBPPQjv3i+bJ0THJmWchEBQgzp51L7tksYjUH0D7kO3NxhlJ5mCACiFyS/+ISp3fM7YScoFdILK1/8npj73id7YTEhgrQqsVg2AMmAIAeexe0GsSxnBbpciaPphCyEEgiDYjKL6fdk2RUS8trl5J8Cv6waIJmkHCDQDIlc3WsP/5ueA+gYAYYpmdQyEAZBEUAuPm21thKUD9/HvGHtikHqIUYgQoKiOmf/6Ifi3fxrJ3kNQ84/COXm/aTwhW9utKATzcMwfB/ZelM6FpQHHg1o8CblaRTIzC+LEHCqjbGvCtZzFB6i3kFJCa33s0KFDx7NtCgBI61vDKE4x0PA0isGpTq5nGUPkgBAS8twJOMfuMreg4wZThFtmrObykxC1dbA/Ve7qEcH/1ufN/u5Q3mAwHBEC0AncB79hrjsf05rZAr0cQwJLp4HNVWByxhyHGRRuQc0/gmTPQYCTNFxAjQc1A4YNkLQgp9cR7I7jIIqj24gaUxSYegqih6IoOifTUGwWTAJ6dz3bBiyZwSTgHL/LZDVZG0ZIYmMbJHFa/zgPuXK2NOvJUkGdOQb/ni+lc1HiwloEpUU8fjq/N/X/+6gOLDyeqo409C0knPlHQDppRheVOCFlr5ToAZBJkoCI7mjCKABMTU2dA/N9Ko9X9F4XYRfbFiunzGcCRQHcR7/ZAIRODFNEAbKsGwVbcI7dBZZFw4wAkpj46n8BrbeZ2vDpIEIC504AQc2KWbiGQbdW8wBYZmD25pqW2CCWEBGCIAgE0AoKABCCbrGnHWh1Pcv+LibSmvdkwFDbahXy3AmzOQNEEpvPeTBHoHLHZyA2z6e+PwFCgl0fE7d9CpU7/hpwvB0IVo1pEQLYSt1ToXIvhIItiPNnQGn21AZGT65pB7owc4rwI7Va7YlSUMRxfFdQD1gQFeoiSjKo9vdlrmf+mQEhoKpPgDaWAU4AnaqOrMQ+q5xSDtSpo5j+Xx+Hqp4EWIM2ljH1pT/C1Kd/Nz1Wn7T8VFzOHgc4Rlb+BwBq8bTFBNb/NkBK1EgHzQLAGJlE4luXXHJJ0+SruRkvhLg7juMlKeV+IGkDiIa0r4uwwMGpkXn2mNGZJFJARNlJjY7SMGvlwL/r8/AeuR16eh+ottaYfujpqjZsERJYXTDu6Z6DpgGlgjw/j2wGv7xwOnNFrCrwzABt9UbyLWXytZbLyD5MTU0tArhXOU6H4FS561msnEL6ikYGgCSBWDrdcEGTCHmpfZYdlOmSVl3T1irk2WMQa9W0bG2Ho5fjXHQCnM3eKkCAUhBbq+k8ntncXOVqxKaGohopxi6EEKjX61tS0p1tQUFEGuCvmR836Y9WQDAa6qEpN5Lv2ZA4NGHp3MiMrY4WqVGVMoGQ6TbRCPl+t4kUxq5IS/MgJCiqQQQbuR6w/88+tgVIu9MYG+Wxs2f3Plr8romTY8RfC4PADOsorYtAi8pofC6amhlTxKCNRWNPJFHKBl6DKVLXy3ym9O9sIhF8Fy4ERDXjiQhjhFIcgoKsgtxiCQsMDWpooKITWyilAOJbr7mGWuavagJFfUM9kOjkjGzKQLa6ni0h7hZj07Irkghi43w6wWhiRnPlQLDXFmvY6mTHO2kHFkHAwonUDjPMTcEWqIUJLDCgy0Qo1AwQrTWg6VaUSBMoLrpoumrqK5wCGzQCWS1ag01GNHuXlg2IfGrEODBqQypg7tK0foCsOL9s/Wyrk+82ITKz9m2s5ONkRVhrPCQFP8QGShEYZdMlpfmOLSJ9e9npW1qcOfk7kdkVtkawvYvGzgWbttktzdUKJ3k8H1N7gd1zrZ2fs4QNEtFgk+8m1hBpbcXm+UZnWiHrMpXRsq0Ua+ZL8w43PFitzp4s268ss3RbrV6PCaQ0GjmILFFWDE7Z18vWBi7uRTATlYGByV0mmrm5kt4IpfF+aswlwQRokbpi6XdpTuDpLWTC5Ulo3NOLn52DJet4Jm7kQYjBTGh1TS0X1cqDEBGElBBClNoTQAlTBEHwAGv9eG5X2PZCvpetIrhpnf6kaZ0XZviT5rPWwMx+wJuwPBDLC7FdVVHwUKjz0/CUF9c3KoO1eWjibO6x9jfd1vOg8hpOnSRIwP+n3fFaQDE3N7ehwbcrR3WNVrYCoriNARLmpWpCGCMzm9EeMGrEcRoqQtixC9WqQuzvn3bqhM2oeMcx9hcYCDbNqzGlMIU8OelaHkgbb6RdDaeUElEULStqjU+0BQUASKIjrLnJ2ETL52wTt3xsStlKBT0xY2ITjpeqAG3sDCkNYwhh3FFRwgxSlWyXTzPWMNFcuPZDwybyu7Fs2LSlXMAGRvO2/HP2iRpr89Zo+vbevXtPt7uadqb9bfV6fVMIarY32bItGI2oJcrVCNgUx+jJPfnrF3NAIH0PhlsBJncDJEsAYQW4spiGnVqWqXey40/5NhchAX+q0Sb2dM/ri4B0oL3UHmvq8mZLs6hGysakKvNCu/9DRG2Ns1JQTE9PH2PwQ1KqJk8jUw8tmdMyQGT7KA96Zi7NcMJ6ClLG0AlQmTH2hm1PtHgghYinsBnkKcwamQGelSjqGMgMfCJgY9nM1+X4LUZ2UWXYX7TaGeZ9qPUg0FLSVztdUikoiChh4Ob8BfVF15M7G5pNuwJIZi8znZ5RY56G5QZzTO5qpMaLoe+iyyplc5wjtzOeYqwBBrxJc986bqjWrI+JgNoqmAjsT5Z6Xk32RZlrahmbypTenVpdXb2/b1AAACfJLWEYWKGrktxGiy9aIlojPvRsY2SyhnkKLBWSLQSjRkptiKInYlcnFaOiTxEjFGzapDJlUuW52rDeZyYIiANokoDy0GrQtUKkQBhNH5R5x/w3r7jiipWBQBEEwZ1RFJ0VQqbRyob6yIDQ6nqWXCYnSOauAE/uSZmCG2yRr9PPUgITMyXRzQwEFmBaop/KUj0CnYpLLghRjmFHZotBS2pTkxhxZXc+iq60jUttinI7A9Bf7nZpbc906NChRTDd7lhzXje5pfm2LujVGjy1H8mugylFcrP6yNUIN6Ke/qRRBblhqZo7PweDan7NYw4ca9tOV1SVLsJEdkkYlrAfkOIQRa+CcPYKdBu32mRZlJhXQgoE9fomM39jYFAAgCb+MsqCU2WuZ1thwPURH3imcbFslrDViL3dn0iDOHYQq2B4ypJgl61KLlR1AgamdpuYhDavus6ThcTN+7KGnplDePCqjsMfbDDkf1noIKSTkhAe2Ldv36PoIh1BEQfBN+pBsGUzcTfDsp1Elz43rY/IwFBgiAwgmUfiTzYCWHbmtJhNFcLo3pxRRDlYLgR1wmxsiMq0qUBjDSBp3HdRdIzokudCT+4B9/QyPWpiCVuNKKUgSXzZnkS1nXQExcGDBx/WWh9V6dC3QQFBOkE0dxh6al/Dys7BYbGEvQ3ccFOb7IpCIq2lgqudt5KBAzvHEK4HTO1LQZAuGUuAS35HCK56KZhkD/OANSmQJjuDiBAGAQPiq10P0g0URBQz6Gal5OCASANWenIPokv+UfrOLgsMTa6pxRpZpbdXsdzNLJhlRzUF8sCXHexqFwXdEdZIyw93zRlW0xY7tGMJTqB3HUB45YuAJOr5Fd5lakRKhUTrk6ury/f0coyuxQrEyc31Wl0P452ZwbN+0Fjd2gaD5ZoWwaHT94U7Xms002aKPLBVqOYSBW+liWXGaWcQMDNroro6bjBE7oaWsISOEB5+CZI9zwCxbryPrFdoWJ5Hmiq/9bLLLjs/FFCsrKzcHSfJE2LA+SDyUjAdIzr0HMRzzzRp4VyFsMUaNluk6iSJ01nkHIsNillVy7awt9kGarf8yagNy4mZhh1hs4Qdl7B/ozzUr21MsK+7zC1agETz/8wgwt/22mddQXH48OE1gL+utjNJSNrR7PioX/Mjlk61VUghoGV/p+PGvNp23qNoaxRD5GV2hrSTbHK06oS1KQ+YmWuoDG2rjaQ88JdEiC57HsLLXwCyvI5eVQjQUCNCCgRBsFrvwRXNpKdaNwK+2M8FtbRN+h/FEcLDL0Wy77J07AcXmIHb2BqpKlFeo3NJFJ7+EnDIdiwhSkA0ZCMUbNTF3kOpe1lkiXQp+60g1F7wM2m6vAGaXozNYs85xhW958Du3SeGCwqir4dhWJV9soVdPWzKNTW0vwv173uNlSK23VMUwJDVAXIjBJxNMSjTQFVZ5DMLcuVqRln7qmawFI9BmUrZ5iIEsOcZaV6jAIQmj6PwuyRCdPl1qD/nVaC4uTCq3weTAEglIYD/je4x8v5AMTs7O8/At9Qw5oVIQtSf/UrEB65KbYuCK2oDoahGktjcamZf5OFt234oi2MUPZYigArLdtUJa6MyMjtCJ60sUdrBpq5i82W/BHYnWlRLI93QmxARarValEh5pJ/L77lUmpg+P9hEW4WbYIb2prD1wp83jW9HNGFHN23j0/qcBG2Kb4op92Jsw1YbZbaGbAXVQGpDm8Te7gMNT6PMligzMOMAwdU/gvDwy0Bx6ytA+wWF4zhgjft3T0w8MBJQCMFfNYU3fZbcc/5fLhRHCK58MYKrXg7EdSsHUvBCmvIjFjjiABBO85Oejywrq+u0wJDFMbKYh80wsoRBen0QcjvCB/Zdglzl6YLayFVH4becQM/MYePl7wJ3OGc/KsQMIOabiSjo+Uf9gGL//v3HNPPddoKsV0xw4798KwHYfOnboXddZLmoducn7RmDYyCpN+aIsp/0vIKLmjs4C3LZxmVWuVU2EKkJHD24rYDZd/ayNBaTsURsBassr6v4W9bYfPl7EB94VseXzOge4xVEhDAMNSX0hb46rB9QEFFChC/2zRQWOJpYQydIdl2EzZe90zyNeVq9DTsUs6txaJZMjZBso06KEU5RYJeCGqIye6SL65omr7D3YqCyKx0zq1uBkLvdhd9GdQRXX4/a899QqjaaQKF7Ux9KKcRxfHwz2LxrZKBId/5SEARhL7ZF2T5F1qA4RP1Zr0Ttea83KoELNgVKbArb8Izr5jdZx9oJtBZvpJ2XUmAUaXkhsswYLWEN1iZiufuAlQku2BFZqV02p1i2JBGSg4ex/mO/Zs7VbW5y5p5UiGF0+srBgwc3RwqKarX6ALP+Tr8qpAwc2X+kI2y++K0In/nSFBgWGGybogiIjEmCzdT3ykr0ypihJCYhRZc4hrIYo7gfNRuW/hQwe3lqN8Ql7GCxhp0e5xg8sQtrP/FRJLsOpfWZPbRfD8ZmEAQM0GcH6Z++QHHNNdeEDHyup3hFN8Rnu2gNKA8br7oR8YFnmae/LTsU7I0cGBsFV7PghUj7yW8X8SwzUstAY20DjHt84JkGRBkztNgQ1vXmDaDB0sXaqz9iIpdx77ZgN7tCKYUojk/OzEze3uMhBwcFALAQN2fTNnfr9F6G+DEAJDGSqX1Yf/VHkOy/Is2kotHp+bwIdgzDYpEkMgNys/dylXa+bIAmZwi7XsMOdtnBLGmppZJl7kpTI5FE5UBuMpaBbBQ5iLBx/ftRv+bVoKgv56Cr+nAcB4LEESJaGwsoDuzde4/W+mgvKsT0Y4/AiCPEey7B2g2/iWT3M1J7wUqM2erEDn9nx49qQFgr6dxC1ZaQJYyi0OySlqgdqZrBBjKG5e4DhURX0hzB1NbfqesJIqxf/0Fsff+bW6KWvUg25qadxHEMKemvBgHEQKAgooBAX+wnusm559BF4hDx7FVYe+3vmWxqVLe8jqLxWVKUE2ykUx608zxkeRyj6L1I2V6FyLTuc2qPiUeUAqDM4zCJPZYO1n/017H1wgwQ/ZcjMHPbPIhSCmEYnYrj+NY+Dzs4KABACHy2Xq93VSFNN9IrOJIQ8Z5Lsfqa30V4+QsNA5RWZhVZJN2+dd7s25QJLenYorciO+xXdGO9irEjiCyvImlWHdnUkPlouBA8sRtrP/W72HrBzw8MiEzaqRDHcUBEX961a9fyWEGxvr7+bZ0kRwfJhfRkayQR9NQc1n7iY6hf+1rj5umofQzDZgsdA7UVy7CkBhOQtbajoHaE02YNKgAiqxafvQJQWcGM5XJyIYKJNNAW1RHPXYWVN/571K++oS+jsm07tgFFFEUA9EBeRyYDgeKKK66oM+PzgybIemINHYOVj/UfvgnrP/JBM2d3XGsFQhEoYMMu9VU0lfq3eBlFF9UyQJuKgG2jk4C9zwAmdlmGZUFN2EscmATgta/Fys99EuGh7xsKIIAsjd7cfkZ1hKe01j3XTpTJwGlPIZxP1+v1DxCRN2iZHgOgbKxD6Q6m02vX/CSiuWdh6tY/hvvEHWnHZYauhplYMk09c5rIqq2acLM3nT7FWRum+4gk/3ljQhQ0jglh9tWJ+V6zKbqdmTNh+YwFimlxpKwRbiKZnsPmS96J+jWvAYhAyXAAAWRBLIYQjbZzHAdxHH9pZma6p7K7tn076A9Pnjx+PwP3DiOQ1Zk1GBQHiPdfidWf/B1svPIm6Ok5M5t/FiEstTUY2Fw2WdXMdshD2FTwQgr5kNwgpQZD+JPAnovN+fKxGrbqSG2LqAYmoHbta7Hyc/8JtWtfj3wU2JClaGxGUcRa019s97jbKhxYWFj8sF/xf6dWq23nMM0X08l4JQJLF3LtLCr3/RX8h26G2FxM6yusl7eBjD2Q1jpi9zNMB+usjiFdc8E2sd3cfL90Bv19l5lzxOb9JIhDwxhxaLaFmwAzoouei83r/jHCZzyvYXCOSKSUcNOHUimFKIqOh2HwvNnZ2fVt98Ogsri4+BzNuBOgif6qjXu4qE7gEBIsFNTKk/Af/AL8h78CsX7OAEE5ALKsaBoo8qeBXRdZrqNtj5QAolgltesiwJsysZM4aoAhqhvGEgrhoeei9uwbEF78fLBQVgBudEJE8D0PADAxMYGNjc3/e/fumQ8Mpf0HFWYW1eriV1zPe2UQDE9f5hfWzeUVEiwk1PoC3Mdvg/foEail46BgI1UJaWodAKZnjU2QqRzdhSE4rfSa2ANM7TdGbgaEqAZojWRiH6JD1yL4npch2vdMsBBAHPVZjr898T0PQggQUaJ18oqZmZltGZl5229Hzi0uvsd3vT+q1+sjuemewEECkA4oDqDOPwHn1J1wT98DufwYRH0tfWOAAvZealijmI5vYgZu2AmOD8wcMEBIzMz6SWUP4r1XIDp4DaL9h5H4u/KYxKADprYjruOgUqkgCOr3zMzMvLjfgpoy2XbRZSLEF4IgOC+F3JOMQH9mcY2OgbK0GotBiPZfiWjuKtS+72chNpegFo9BVR+FOv8E5OYiyJ0EcWJcwzhEXmafrVP2gbMLvOcy6Ind0P4exFMHkOy5BMnkfmhnwoy7T2JQEjTmKd8B0Vqn9oT4zDAAAQyBKQBgYWHxU36l8jO12tZIG6An1sj2TYf8szDv8yJtjEMZ16CSOiiqg6Ia7LEXDADSg1YuaGI34E1DCwUW6TRPaRjbrpVstx6XKKXgue4Ws/7+6enpvmox2x5zGAch4v8QReFPCSHc7YwP6SZd4xr2vsyGEWz9LhQSbwYsdkNKZaYNyo5szb0h0jF3nNkXSZS/uK1zNHb8bOH5HqIo+tTumZkHh3XMgeMUtszOzt4SJ/G/dF0Xg5br9So951Bgh9QbtaFgDZ3E0EkISiKIJAIlMUhHIB1BcALKXdHGWJQMPBanNBim8BK+cUmlUsHWxtb9cRj+ZqfZ7vqVofXg3P79vx3Ug98TQsSu6468QfpJy5fp/CTRpoutgbgEgkjjG00gsDBlr+0jjlNtCCHgVyoIguAOQL9udnZ2fqjHH9aBiIjn5vZ/OImj1yZJcn+lUunrTbqDSs+skdcgNPZNkjS0nQLDsJw9Us2smwHCzYAcMz14xgWt1ev13wfr6+fm5o4N+xwj6bX5+fn9ruv/XyB+j5RKheEYAjlA70aota8QAlKKlCHSrmekr6tADoIiGMZtYEop4bougqD+Tdb6/XNzc9uOR3Rsn1HJ0tLS9ZrpX3qee10Yhkh6mqJnCDfUs4di1lIqKCmb31RQCoLCO02KrDEi8X0fcRyv6ET/W+bk383NzW2MvA1HKdVqdRpCfIBA/9xxnJlRBblabqwP1hBSmNHZLW826gyCZqAMX5RSEEIgCqObY+IPHZqd7XsMxyAyWlcBwOzs7Prsvn0fDXXyyjiO/sZ1XWw3s9qL9OOhcKkhadkUtm0xBo+DiFCpVMCsT8VR+MtHj9736nEBAhgDU9hy5MgRdc0117xVKucjjuNcHgRB38PrB7rBLqwhhDBATV99hdQo3QlbwvM8xHEcac1/Hkv6F4f27j050gZq12bjlpMnTx7yJyZ+TQrxTqWciXGolE7gMKBQlopoN/d4szoZJiCUUuZdHHH8DWL90f3793915I3Sqa12Ss6dO/cSIeTHleO8ipnT+sIR33AJMIQQcJTqalOMgiWEEPA8D2EYPqkT/furq+f/+PDhw8NNOffbRjt5cgC48847nUsvvfwfg/Bh3/cPj8NLKbJGCyiaVMZoPA4igud5iKKophP9Z3Ec/utDhw6NXVW0bZ8LQU6fPr3P9yduZPB7Pc/bU6/XR+rqFWMVSsnm+ERHj2N7oHBdF1prxHH0ZUj52wf27bttLI3co4zc++hVLr744qX9+/d+JGT94jAI/lxIGfi+P7KoaNbRtpdih7RbXmNh/3ZAQCil4Ps+oii+N4mjn/uPf/RHP36hAQK4gJiiKNVq9eVE4sMkxPVCCIwyKtrWpih4IIOqjiwaGYbhSdbJJ5j5P406ALUduWBBAQDMLJeXl39aM37NcZwXaq1HYowa9aHadP7gHkdmREZhuJSw/uP61tYfXnrppUNNXo1CLmhQZHLixAl/YmLqbVLJX3Ec5+o4jhHHvc3l0ItkNsWwPA4iAd/3UK/Xtwj8PwD8wezs7MM73Y69ylMCFJmcOnVqr+v7bwPTr1Qq/uVRFA0FHEKIltxHORg6h7QzjyIMwzoJ8Zc6jv7t3NzcPTvdbv3KUwoUmTz22GMHpqd3vQuEd7ied0m8TXDYoBjEDW2AIYrA+m+0Tn7/wIEDA4/63ml5SoIik8cfr17kT/AvSqHe6XruZYOCw6TPZccMaRkgiAi+7yMIgoiBz0En/8/c3NzXd7pdtitPaVBkcu7cuQNM8p1Kinc4jnNZvzZHBoomlujgcQgh4LouoigKdaK/EEN/4tDc3Nd2uh2GJU8LUGRyYmHhYAV4uxTyba7rXpUkSU/eiiAyoEDnxJcQAr7vo16vbxLhLxPgTy7EOMN25WkFikyWl5d3xVq/BUTvcKS6FjDzNrSzCQQRzPtMym0JKSUcx0G9XlsliL+IoD95aHb27p2+z1HJ0xIUmRw9enRqbm7uJxnivWD+Qc/3EIZhS7qeUqYoqgpHORBSIAzDJzTr/x4y//nFs7OP7PR9jVqe1qDIhJnVwsLyDxPxu0D4Md+vTJrEm7E7DCiEmfeUzOuVkiSB1vrbYPxZ6Kr/76Lp6epO38e45LsCFLacXV7+XofxFga/SSnn0szAVOkEZ1u1WkDgrzDRn4a12t8eOnRotMPeLkD5rgNFJmtra/uTJPnxhPkHONGXSEdtcsIPak1fnJ3dPbbSt3+Qf5B/kH+Qp6b8/8QJ2rWykLB9AAAAJXRFWHRkYXRlOmNyZWF0ZQAyMDIzLTEwLTE4VDEyOjE2OjE5KzAwOjAwzMcaDwAAACV0RVh0ZGF0ZTptb2RpZnkAMjAyMy0xMC0xOFQxMjoxNjoxOSswMDowML2aorMAAAAodEVYdGRhdGU6dGltZXN0YW1wADIwMjMtMTAtMThUMTI6MTY6MjcrMDA6MDA0P//SAAAAAElFTkSuQmCC;" vertex="1" parent="Kq0Dt2APN0UdBmoPHADJ-253">
          <mxGeometry x="6.349999999999909" y="4" width="13.3" height="18" as="geometry" />
        </mxCell>
        <mxCell id="Kq0Dt2APN0UdBmoPHADJ-256" value="&lt;b&gt;Linux Kernel&lt;/b&gt;" style="points=[[0,0],[0.25,0],[0.5,0],[0.75,0],[1,0],[1,0.25],[1,0.5],[1,0.75],[1,1],[0.75,1],[0.5,1],[0.25,1],[0,1],[0,0.75],[0,0.5],[0,0.25]];outlineConnect=0;gradientColor=none;html=1;whiteSpace=wrap;fontSize=12;fontStyle=0;container=1;pointerEvents=0;collapsible=0;recursiveResize=0;shape=mxgraph.aws4.group;grIcon=mxgraph.aws4.group_aws_cloud;strokeColor=#232F3E;fillColor=none;verticalAlign=top;align=left;spacingLeft=30;fontColor=#232F3E;dashed=0;" vertex="1" parent="Kq0Dt2APN0UdBmoPHADJ-253">
          <mxGeometry x="20" y="40" width="460" height="240" as="geometry" />
        </mxCell>
        <mxCell id="Kq0Dt2APN0UdBmoPHADJ-257" value="" style="whiteSpace=wrap;html=1;aspect=fixed;fillColor=#232f3e;strokeColor=none;" vertex="1" parent="Kq0Dt2APN0UdBmoPHADJ-256">
          <mxGeometry x="3" y="2" width="20" height="20" as="geometry" />
        </mxCell>
        <mxCell id="Kq0Dt2APN0UdBmoPHADJ-258" value="&lt;b&gt;Root Filesystem&lt;/b&gt;" style="points=[[0,0],[0.25,0],[0.5,0],[0.75,0],[1,0],[1,0.25],[1,0.5],[1,0.75],[1,1],[0.75,1],[0.5,1],[0.25,1],[0,1],[0,0.75],[0,0.5],[0,0.25]];outlineConnect=0;gradientColor=none;html=1;whiteSpace=wrap;fontSize=12;fontStyle=0;container=1;pointerEvents=0;collapsible=0;recursiveResize=0;shape=mxgraph.aws4.group;grIcon=mxgraph.aws4.group_aws_cloud;strokeColor=#232F3E;fillColor=none;verticalAlign=top;align=left;spacingLeft=30;fontColor=#232F3E;dashed=0;" vertex="1" parent="Kq0Dt2APN0UdBmoPHADJ-256">
          <mxGeometry x="20" y="42" width="420" height="180" as="geometry" />
        </mxCell>
        <mxCell id="Kq0Dt2APN0UdBmoPHADJ-259" value="" style="whiteSpace=wrap;html=1;aspect=fixed;fillColor=#232f3e;strokeColor=none;" vertex="1" parent="Kq0Dt2APN0UdBmoPHADJ-258">
          <mxGeometry x="3" y="2" width="20" height="20" as="geometry" />
        </mxCell>
        <mxCell id="Kq0Dt2APN0UdBmoPHADJ-260" value="&lt;b&gt;Guest OS&lt;/b&gt;" style="shape=cube;whiteSpace=wrap;html=1;boundedLbl=1;backgroundOutline=1;darkOpacity=0.05;darkOpacity2=0.1;" vertex="1" parent="Kq0Dt2APN0UdBmoPHADJ-258">
          <mxGeometry x="20" y="38" width="110" height="120" as="geometry" />
        </mxCell>
        <mxCell id="Kq0Dt2APN0UdBmoPHADJ-261" value="&lt;b&gt;Runtime&lt;/b&gt;" style="shape=cube;whiteSpace=wrap;html=1;boundedLbl=1;backgroundOutline=1;darkOpacity=0.05;darkOpacity2=0.1;" vertex="1" parent="Kq0Dt2APN0UdBmoPHADJ-258">
          <mxGeometry x="150" y="38" width="110" height="120" as="geometry" />
        </mxCell>
        <mxCell id="Kq0Dt2APN0UdBmoPHADJ-262" value="&lt;b&gt;Agent&lt;/b&gt;" style="shape=cube;whiteSpace=wrap;html=1;boundedLbl=1;backgroundOutline=1;darkOpacity=0.05;darkOpacity2=0.1;" vertex="1" parent="Kq0Dt2APN0UdBmoPHADJ-258">
          <mxGeometry x="320" y="38" width="80" height="120" as="geometry" />
        </mxCell>
        <mxCell id="Kq0Dt2APN0UdBmoPHADJ-263" value="" style="endArrow=classic;html=1;rounded=0;" edge="1" parent="Kq0Dt2APN0UdBmoPHADJ-258">
          <mxGeometry width="50" height="50" relative="1" as="geometry">
            <mxPoint x="320" y="97.70000000000005" as="sourcePoint" />
            <mxPoint x="260" y="97.70000000000005" as="targetPoint" />
          </mxGeometry>
        </mxCell>
        <mxCell id="Kq0Dt2APN0UdBmoPHADJ-264" style="edgeStyle=orthogonalEdgeStyle;rounded=0;orthogonalLoop=1;jettySize=auto;html=1;entryX=0;entryY=0;entryDx=30;entryDy=0;entryPerimeter=0;strokeWidth=2;" edge="1" parent="1" source="Kq0Dt2APN0UdBmoPHADJ-8" target="Kq0Dt2APN0UdBmoPHADJ-262">
          <mxGeometry relative="1" as="geometry" />
        </mxCell>
        <mxCell id="Kq0Dt2APN0UdBmoPHADJ-265" value="gRPC" style="edgeLabel;html=1;align=center;verticalAlign=middle;resizable=0;points=[];" vertex="1" connectable="0" parent="Kq0Dt2APN0UdBmoPHADJ-264">
          <mxGeometry x="0.0154" y="1" relative="1" as="geometry">
            <mxPoint as="offset" />
          </mxGeometry>
        </mxCell>
        <mxCell id="Kq0Dt2APN0UdBmoPHADJ-266" value="&lt;b&gt;SQL Database&lt;/b&gt;" style="text;html=1;align=center;verticalAlign=middle;whiteSpace=wrap;rounded=0;" vertex="1" parent="1">
          <mxGeometry x="320" y="380" width="100" height="30" as="geometry" />
        </mxCell>
        <mxCell id="Kq0Dt2APN0UdBmoPHADJ-267" value="&lt;b&gt;Object Store&lt;/b&gt;" style="text;html=1;align=center;verticalAlign=middle;whiteSpace=wrap;rounded=0;" vertex="1" parent="1">
          <mxGeometry x="690" y="380" width="80" height="30" as="geometry" />
        </mxCell>
        <mxCell id="Kq0Dt2APN0UdBmoPHADJ-268" value="&lt;b&gt;Document Database&lt;/b&gt;" style="text;html=1;align=center;verticalAlign=middle;whiteSpace=wrap;rounded=0;" vertex="1" parent="1">
          <mxGeometry x="1040" y="370" width="100" height="30" as="geometry" />
        </mxCell>
        <mxCell id="Kq0Dt2APN0UdBmoPHADJ-269" value="&lt;b&gt;Key-Value-Database&lt;/b&gt;" style="text;html=1;align=center;verticalAlign=middle;whiteSpace=wrap;rounded=0;" vertex="1" parent="1">
          <mxGeometry x="1400" y="370" width="100" height="30" as="geometry" />
        </mxCell>
        <mxCell id="Kq0Dt2APN0UdBmoPHADJ-270" value="" style="group" vertex="1" connectable="0" parent="1">
          <mxGeometry x="1120" y="690" width="200" height="60" as="geometry" />
        </mxCell>
        <mxCell id="Kq0Dt2APN0UdBmoPHADJ-271" value="" style="shape=cylinder3;whiteSpace=wrap;html=1;boundedLbl=1;backgroundOutline=1;size=15;rotation=-90;" vertex="1" parent="Kq0Dt2APN0UdBmoPHADJ-270">
          <mxGeometry x="70" y="-70" width="60" height="200" as="geometry" />
        </mxCell>
        <mxCell id="Kq0Dt2APN0UdBmoPHADJ-272" value="&lt;b&gt;Apache Kafka&lt;/b&gt;" style="text;html=1;align=center;verticalAlign=middle;whiteSpace=wrap;rounded=0;" vertex="1" parent="Kq0Dt2APN0UdBmoPHADJ-270">
          <mxGeometry x="50" y="15" width="120" height="30" as="geometry" />
        </mxCell>
        <mxCell id="Kq0Dt2APN0UdBmoPHADJ-274" value="" style="endArrow=classic;html=1;rounded=0;" edge="1" parent="1">
          <mxGeometry width="50" height="50" relative="1" as="geometry">
            <mxPoint x="1410" y="1040" as="sourcePoint" />
            <mxPoint x="1320" y="730" as="targetPoint" />
            <Array as="points">
              <mxPoint x="1410" y="730" />
            </Array>
          </mxGeometry>
        </mxCell>
        <mxCell id="Kq0Dt2APN0UdBmoPHADJ-275" value="" style="endArrow=classic;html=1;rounded=0;" edge="1" parent="1">
          <mxGeometry width="50" height="50" relative="1" as="geometry">
            <mxPoint x="1320" y="710" as="sourcePoint" />
            <mxPoint x="1280" y="500" as="targetPoint" />
            <Array as="points">
              <mxPoint x="1360" y="710" />
              <mxPoint x="1360" y="580" />
              <mxPoint x="1280" y="580" />
            </Array>
          </mxGeometry>
        </mxCell>
        <mxCell id="Kq0Dt2APN0UdBmoPHADJ-276" value="" style="endArrow=classic;html=1;rounded=0;startArrow=classic;startFill=1;" edge="1" parent="1">
          <mxGeometry width="50" height="50" relative="1" as="geometry">
            <mxPoint x="620" y="830" as="sourcePoint" />
            <mxPoint x="1140" y="740" as="targetPoint" />
            <Array as="points">
              <mxPoint x="620" y="740" />
            </Array>
          </mxGeometry>
        </mxCell>
        <mxCell id="Kq0Dt2APN0UdBmoPHADJ-277" value="" style="endArrow=classic;html=1;rounded=0;" edge="1" parent="1">
          <mxGeometry width="50" height="50" relative="1" as="geometry">
            <mxPoint x="1140" y="700" as="sourcePoint" />
            <mxPoint x="920" y="500" as="targetPoint" />
            <Array as="points">
              <mxPoint x="920" y="700" />
            </Array>
          </mxGeometry>
        </mxCell>
        <mxCell id="Kq0Dt2APN0UdBmoPHADJ-278" value="" style="endArrow=classic;html=1;rounded=0;startArrow=classic;startFill=1;" edge="1" parent="1">
          <mxGeometry width="50" height="50" relative="1" as="geometry">
            <mxPoint x="1140" y="730" as="sourcePoint" />
            <mxPoint x="160" y="500" as="targetPoint" />
            <Array as="points">
              <mxPoint x="160" y="730" />
            </Array>
          </mxGeometry>
        </mxCell>
        <mxCell id="Kq0Dt2APN0UdBmoPHADJ-279" value="" style="endArrow=classic;html=1;rounded=0;startArrow=classic;startFill=1;" edge="1" parent="1">
          <mxGeometry width="50" height="50" relative="1" as="geometry">
            <mxPoint x="1140" y="720" as="sourcePoint" />
            <mxPoint x="620" y="500" as="targetPoint" />
            <Array as="points">
              <mxPoint x="620" y="720" />
            </Array>
          </mxGeometry>
        </mxCell>
        <mxCell id="Kq0Dt2APN0UdBmoPHADJ-273" value="" style="endArrow=classic;html=1;rounded=0;" edge="1" parent="1">
          <mxGeometry width="50" height="50" relative="1" as="geometry">
            <mxPoint x="1140" y="710" as="sourcePoint" />
            <mxPoint x="740" y="670" as="targetPoint" />
            <Array as="points">
              <mxPoint x="740" y="710" />
            </Array>
          </mxGeometry>
        </mxCell>
        <mxCell id="Kq0Dt2APN0UdBmoPHADJ-282" value="&lt;b&gt;Container Image Registry&lt;/b&gt;" style="rounded=1;whiteSpace=wrap;html=1;" vertex="1" parent="1">
          <mxGeometry x="240" y="620" width="180" height="70" as="geometry" />
        </mxCell>
        <mxCell id="Kq0Dt2APN0UdBmoPHADJ-283" value="" style="endArrow=classic;html=1;rounded=0;" edge="1" parent="1">
          <mxGeometry width="50" height="50" relative="1" as="geometry">
            <mxPoint x="420" y="670" as="sourcePoint" />
            <mxPoint x="500" y="830" as="targetPoint" />
            <Array as="points">
              <mxPoint x="500" y="670" />
            </Array>
          </mxGeometry>
        </mxCell>
        <mxCell id="Kq0Dt2APN0UdBmoPHADJ-284" value="" style="endArrow=classic;html=1;rounded=0;startArrow=classic;startFill=1;" edge="1" parent="1">
          <mxGeometry width="50" height="50" relative="1" as="geometry">
            <mxPoint x="420" y="640" as="sourcePoint" />
            <mxPoint x="520" y="500" as="targetPoint" />
            <Array as="points">
              <mxPoint x="520" y="640" />
            </Array>
          </mxGeometry>
        </mxCell>
        <mxCell id="Kq0Dt2APN0UdBmoPHADJ-285" value="" style="endArrow=none;html=1;rounded=0;" edge="1" parent="1">
          <mxGeometry width="50" height="50" relative="1" as="geometry">
            <mxPoint x="329.85" y="730" as="sourcePoint" />
            <mxPoint x="329.85" y="690" as="targetPoint" />
          </mxGeometry>
        </mxCell>
      </root>
    </mxGraphModel>
  </diagram>
</mxfile>
